<svg xmlns="http://www.w3.org/2000/svg" width="57" height="103" viewBox="0 0 57 103"><g><g clip-path="url(#clip-6930)"><path fill="#c8d1d5" d="M79.5 36c-1.285 0-2.53.426-3.596 1.23l-.904.682-.905-.682C73.03 36.426 71.785 36 70.5 36c-3.31 0-6 2.69-6 6v1.5H63c-1.655 0-3 1.345-3 3s1.345 3 3 3h24c1.654 0 3-1.345 3-3s-1.346-3-3-3h-1.5V42c0-3.31-2.69-6-6-6zM45 58.5V12H18v39h-3V22.5H6c-3.31 0-6-2.691-6-6 0-2.826 1.965-5.202 4.597-5.835C5.246 6.335 8.991 3 13.5 3c1.587 0 3.123.423 4.5 1.231a8.896 8.896 0 0 1 3-1.087V0h51v9h6v24.144A8.765 8.765 0 0 1 79.5 33c4.509 0 8.254 3.335 8.902 7.665C91.035 41.298 93 43.675 93 46.5c0 3.309-2.691 6-6 6h-9v6h-3v-6H63c-3.31 0-6-2.691-6-6 0-1.792.793-3.4 2.044-4.5H51v-3h11.024c1.238-3.49 4.567-6 8.476-6 1.587 0 3.123.423 4.5 1.231V12H48v46.5zM69 3H48v6h21zM24 3v6h21V3zm-9 16.5V9h6V6.217c-.743.2-1.454.529-2.096 1.013L18 7.912l-.905-.682C16.03 6.426 14.785 6 13.5 6c-3.31 0-6 2.69-6 6v1.5H6c-1.655 0-3 1.345-3 3 0 1.654 1.345 3 3 3zm6-4.5h21v3H21zm0 12h21v3H21zm0 12h21v3H21zm3-18h3v3h-3zm6 0h3v3h-3zm6 0h3v3h-3zM24 33h3v3h-3zm6 0h3v3h-3zm6 0h3v3h-3zM24 45h3v3h-3zm6 0h3v3h-3zm6 0h3v3h-3zm15-30h21v3H51zm0 12h21v3H51zm3-6h3v3h-3zm6 0h3v3h-3zm6 0h3v3h-3zM54 33h3v3h-3zm6 0h3v3h-3z"/></g><g clip-path="url(#clip-6930)"><path fill="#2999d6" d="M12 57h3v3h-3zm9 0h3v3h-3zm9 0h3v3h-3zm12-6v7.5h48V94h3v9H0v-9h3V51zM6 94h6V63h3v31h6V63h3v31h6V63h3v31h9V70.5h12V94h3V70.5h12V94h3V70.5h12V94h3V67.5h-3v-3h3v-3H42v3h39v3H39V54H6zm75-20.5h-6V94h6zm-15 0h-6V94h6zm-15 0h-6V94h6zM90 97H3v3h87z"/></g></g></svg>