<?xml version="1.0" encoding="UTF-8"?>
<svg id="SVGDoc" width="18" height="18" xmlns="http://www.w3.org/2000/svg" version="1.1" xmlns:xlink="http://www.w3.org/1999/xlink" xmlns:avocode="https://avocode.com/" viewBox="0 0 18 18"><defs></defs><desc>Generated with Avocode.</desc><g><g opacity="0.43"><title>иконка</title><path d="M11.99995,8.99992h2.01566c-0.03154,-1.40626 -0.52371,-2.5855 -1.47657,-3.53905c-0.95365,-0.95288 -2.13282,-1.44512 -3.53909,-1.47656v2.01565c0.84379,0.03143 1.54688,0.32808 2.10936,0.89056c0.56255,0.56248 0.85917,1.26567 0.89064,2.10939zM15.98435,8.99992h2.01559c-0.06294,-2.56198 -0.93749,-4.68752 -2.62499,-6.37503c-1.6875,-1.68744 -3.81296,-2.56198 -6.375,-2.62497v2.01565c1.96874,0.03143 3.61669,0.70307 4.94535,2.01559c1.32787,1.31258 2.00751,2.96926 2.03905,4.96876zM17.01561,12.51551c-1.25027,0 -2.43752,-0.18749 -3.56255,-0.56248c-0.37501,-0.12457 -0.71919,-0.0469 -1.03126,0.2344l-2.20306,2.20314c-1.43781,-0.75004 -2.71146,-1.67946 -3.82032,-2.78907c-1.10965,-1.10894 -2.03905,-2.38259 -2.78907,-3.82035l2.20313,-2.20308c0.28124,-0.312 0.35884,-0.65623 0.23432,-1.03134c-0.37494,-1.12496 -0.56248,-2.31218 -0.56248,-3.56238c0,-0.28136 -0.09377,-0.5157 -0.28124,-0.70319c-0.18747,-0.18749 -0.42186,-0.28124 -0.7031,-0.28124h-3.51562c-0.28131,0 -0.51563,0.09375 -0.70317,0.28124c-0.18747,0.18749 -0.28124,0.42183 -0.28124,0.70319c0.12453,4.8127 1.78857,8.82049 4.9922,12.02335c3.20284,3.20366 7.21071,4.86771 12.02345,4.99222c0.28124,0 0.51563,-0.09375 0.7031,-0.28124c0.18754,-0.18749 0.28124,-0.42189 0.28124,-0.70313v-3.51566c0,-0.28118 -0.0937,-0.51558 -0.28124,-0.70307c-0.18747,-0.18755 -0.42186,-0.2813 -0.7031,-0.2813z" fill="#8a8e90" fill-opacity="1"></path></g></g></svg>