<svg xmlns="http://www.w3.org/2000/svg" width="49" height="109" viewBox="0 0 49 109"><g><g clip-path="url(#clip-6989)"><path fill="#d5dce0" d="M76 38.227c0 .955-.409 1.864-1.124 2.499l-4.435 3.936 2.59 5.335a3.341 3.341 0 0 1-1.917 4.615l-5.61 1.947.342 5.908a3.334 3.334 0 0 1-.975 2.56 3.352 3.352 0 0 1-2.567.974l-5.928-.343-1.952 5.595a3.353 3.353 0 0 1-4.63 1.912l-5.346-2.58-3.949 4.425a3.356 3.356 0 0 1-5.01 0l-3.946-4.424-5.348 2.583a3.355 3.355 0 0 1-4.626-1.911l-1.951-5.596-5.926.343a3.357 3.357 0 0 1-2.568-.973 3.337 3.337 0 0 1-.976-2.56l.344-5.913-5.61-1.947a3.348 3.348 0 0 1-1.99-1.88 3.333 3.333 0 0 1 .084-2.735l2.585-5.333-4.437-3.938a3.342 3.342 0 0 1 0-4.997l4.435-3.937-2.588-5.334a3.338 3.338 0 0 1-.08-2.736 3.35 3.35 0 0 1 1.995-1.88l5.61-1.945-.344-5.912a3.335 3.335 0 0 1 .975-2.561 3.354 3.354 0 0 1 2.566-.973l5.929.343 1.95-5.597c.314-.902 1-1.628 1.884-1.993a3.362 3.362 0 0 1 2.746.082l5.344 2.581 3.948-4.424a3.464 3.464 0 0 1 5.01 0l3.947 4.424 5.351-2.583a3.362 3.362 0 0 1 2.743-.08 3.345 3.345 0 0 1 1.882 1.992l1.953 5.596 5.926-.343a3.35 3.35 0 0 1 2.568.972 3.337 3.337 0 0 1 .975 2.56l-.345 5.914 5.61 1.946c.904.313 1.63.997 1.996 1.88a3.334 3.334 0 0 1-.083 2.737l-2.588 5.332 4.437 3.94A3.34 3.34 0 0 1 76 38.226zm-3.755-.007l-4.363-3.868a3.359 3.359 0 0 1-.79-3.955l2.547-5.247-5.515-1.912a3.353 3.353 0 0 1-2.24-3.352l.332-5.816-5.833.337a3.335 3.335 0 0 1-3.365-2.24l-1.913-5.502-5.258 2.538a3.374 3.374 0 0 1-3.963-.783l-3.885-4.354-3.879 4.352a3.382 3.382 0 0 1-3.967.785l-5.258-2.538-1.917 5.502a3.4 3.4 0 0 1-3.365 2.239l-5.833-.338.34 5.815a3.355 3.355 0 0 1-2.245 3.355l-5.516 1.914 2.545 5.241a3.356 3.356 0 0 1-.786 3.953L3.751 38.22l4.365 3.88a3.355 3.355 0 0 1 .788 3.956l-2.545 5.248 5.516 1.911a3.354 3.354 0 0 1 2.245 3.354l-.34 5.817 5.833-.338a3.345 3.345 0 0 1 3.365 2.238l1.913 5.502 5.259-2.538a3.373 3.373 0 0 1 3.965.784L38 72.388l3.877-4.353a3.38 3.38 0 0 1 3.965-.785l5.258 2.538 1.919-5.502a3.358 3.358 0 0 1 3.365-2.238l5.84.336-.338-5.817a3.351 3.351 0 0 1 2.239-3.353l5.515-1.912-2.546-5.248a3.357 3.357 0 0 1 .787-3.953zm-8.912 0c0 13.957-11.343 25.272-25.334 25.272-13.993 0-25.335-11.315-25.335-25.272C12.664 24.263 24.006 12.95 38 12.95c13.984.016 25.316 11.321 25.334 25.271zm-3.62 0c0-11.963-9.722-21.661-21.714-21.661-11.993 0-21.716 9.698-21.716 21.661 0 11.963 9.723 21.661 21.716 21.661 11.986-.013 21.701-9.703 21.715-21.66zm14.235 58.163a3.575 3.575 0 0 1-.74 3.662 3.598 3.598 0 0 1-3.603 1.017L59.17 98.173l-6.107 8.901a3.591 3.591 0 0 1-3.412 1.526 3.588 3.588 0 0 1-2.922-2.327l-7.475-20.497a1.801 1.801 0 0 1 .287-1.81 1.812 1.812 0 0 1 3.113.577l7.468 20.49 6.094-8.908A3.594 3.594 0 0 1 60.14 94.7l10.431 2.889L61.188 72a1.801 1.801 0 0 1 .288-1.81 1.813 1.813 0 0 1 3.113.578zm-24.04-2.525l-5.833-15.992a1.811 1.811 0 0 1 3.454-1.082l4.756 13.028a10.992 10.992 0 0 1 9.795-2.076l.214.058a1.805 1.805 0 1 1-.965 3.48l-.216-.06a7.316 7.316 0 0 0-7.888 2.862l-.117.18a1.798 1.798 0 0 1-1.719.778 1.808 1.808 0 0 1-1.48-1.176zm-13.222-9.463a1.8 1.8 0 0 1 .063 1.381l-7.477 20.492a3.587 3.587 0 0 1-2.922 2.327 3.592 3.592 0 0 1-3.411-1.526l-6.13-8.906-10.404 2.906a3.597 3.597 0 0 1-3.606-1.017 3.576 3.576 0 0 1-.738-3.664l9.348-25.62a1.81 1.81 0 0 1 2.302-1.034A1.803 1.803 0 0 1 14.81 72L5.462 97.625l10.4-2.93a3.602 3.602 0 0 1 3.926 1.426l6.127 8.907 7.429-20.481a1.812 1.812 0 0 1 3.342-.152zM20.57 77.288l-3.665 10.046a10.839 10.839 0 0 1 8.84 4.693l.13.191a1.8 1.8 0 0 1 .154 1.813 1.81 1.81 0 1 1-3.143.221l-.13-.18a7.323 7.323 0 0 0-7.876-2.854l-.226.062a1.813 1.813 0 0 1-1.803-.522 1.802 1.802 0 0 1-.368-1.838l4.697-12.852a1.812 1.812 0 0 1 2.32-1.082 1.803 1.803 0 0 1 1.07 2.302z"/></g></g></svg>